<svg xmlns="http://www.w3.org/2000/svg" viewBox="0 0 512 512">
    <defs><style>path { fill: #999; } @media (prefers-color-scheme: dark) { path { fill: #ccc; } } @media (prefers-color-scheme: light) { path { fill: #666; } }</style></defs>
    <path d="M267.07,2.46l-2.49-1.13a14.62,14.62,0,0,0-19,6.37L1.4,491.34a13.26,13.26,0,0,0,6.71,18.07l2.49,1.13c7.11,3.23,15.63.38,19-6.36L273.78,20.53A13.26,13.26,0,0,0,267.07,2.46Zm236.82.13L501.4,1.46c-7.11-3.23-15.63-.38-19,6.36L238.22,491.47a13.26,13.26,0,0,0,6.71,18.07l2.49,1.13a14.62,14.62,0,0,0,19-6.37L510.6,20.66A13.26,13.26,0,0,0,503.89,2.59Z"/>
</svg>